Genre:Action | Drama | Western
Language:English
IMDb:http://www.imdb.com/title/tt1853728/
Source:DVDSCR.VOBS.-.MATiNE Thanks
Encoder:Tony

Format : AVI
Format/Info : Audio Video Interleave
Format profile : OpenDML
File size : 2.12 GiB
Duration : 2h 45mn
Overall bit rate : 1 840 Kbps

Video
ID : 0
Format : MPEG-4 Visual
Format profile : Advanced Simple@L5
Format settings, BVOP : 1
Format settings, QPel : No
Format settings, GMC : No warppoints
Format settings, Matrix : Default (H.263)
Codec ID : XVID
Codec ID/Hint : XviD
Duration : 2h 45mn
Bit rate : 1 444 Kbps
Width : 640 pixels
Height : 272 pixels
Display aspect ratio : 2.35:1
Frame rate : 23.976 fps
Color space : YUV
Chroma subsampling : 4:2:0
Bit depth : 8 bits
Scan type : Progressive
Compression mode : Lossy
Bits/(Pixel*Frame) : 0.346
Stream size : 1.67 GiB (78%)
Writing library : XviD 1.2.1 (UTC 2008-12-04)

Audio
ID : 1
Format : AC-3
Format/Info : Audio Coding 3
Mode extension : CM (complete main)
Codec ID : 2000
Duration : 2h 45mn
Bit rate mode : Constant
Bit rate : 384 Kbps
Channel(s) : 6 channels
Channel positions : Front: L C R, Side: L R, LFE
Sampling rate : 48.0 KHz
Bit depth : 16 bits
Compression mode : Lossy
Stream size : 454 MiB (21%)
Alignment : Aligned on interleaves
Interleave, duration : 42 ms (1.00 video frame)
Interleave, preload duration : 512 ms


Plot:
With the help of his mentor, a slave-turned-bounty hunter sets out to rescue his wife from a brutal Mississippi plantation owner.

 
http://lookpic.com/O/i2/1557/u4y0ScUG.png
 
http://lookpic.com/O/i2/1085/CXb5iZs4.png
 
http://lookpic.com/O/i2/1101/kxwtMqIc.png
 
http://lookpic.com/O/i2/1872/BcNa2L3v.png